<svg width="32" height="32" viewBox="0 0 32 32" fill="none" xmlns="http://www.w3.org/2000/svg">
  <!-- Background circle with gradient -->
  <defs>
    <linearGradient id="logoGradient" x1="0%" y1="0%" x2="100%" y2="100%">
      <stop offset="0%" style="stop-color:#3B82F6;stop-opacity:1" />
      <stop offset="100%" style="stop-color:#F97316;stop-opacity:1" />
    </linearGradient>
    <linearGradient id="bookGradient" x1="0%" y1="0%" x2="100%" y2="100%">
      <stop offset="0%" style="stop-color:#FFFFFF;stop-opacity:1" />
      <stop offset="100%" style="stop-color:#F8FAFC;stop-opacity:1" />
    </linearGradient>
  </defs>
  
  <!-- Main circle background -->
  <circle cx="16" cy="16" r="15" fill="url(#logoGradient)" stroke="#E2E8F0" stroke-width="0.5"/>
  
  <!-- Book icon -->
  <g transform="translate(8, 7)">
    <!-- Book cover -->
    <rect x="2" y="2" width="12" height="16" rx="1" fill="url(#bookGradient)" stroke="#CBD5E1" stroke-width="0.5"/>
    
    <!-- Book spine -->
    <rect x="2" y="2" width="2" height="16" rx="1" fill="#3B82F6" opacity="0.8"/>
    
    <!-- Book pages -->
    <rect x="5" y="5" width="7" height="1" rx="0.5" fill="#64748B" opacity="0.6"/>
    <rect x="5" y="7" width="6" height="1" rx="0.5" fill="#64748B" opacity="0.6"/>
    <rect x="5" y="9" width="8" height="1" rx="0.5" fill="#64748B" opacity="0.6"/>
    <rect x="5" y="11" width="5" height="1" rx="0.5" fill="#64748B" opacity="0.6"/>
    
    <!-- Smart/AI indicator (small sparkle) -->
    <g transform="translate(11, 3)">
      <path d="M2 0L2.5 1.5L4 2L2.5 2.5L2 4L1.5 2.5L0 2L1.5 1.5Z" fill="#F97316" opacity="0.9"/>
    </g>
  </g>
</svg>